<?xml version="1.0" encoding="UTF-8"?>
<svg id="Warstwa_1" xmlns="http://www.w3.org/2000/svg" version="1.1" viewBox="0 0 408.51 215.04">
  <!-- Generator: Adobe Illustrator 30.3.0, SVG Export Plug-In . SVG Version: 2.1.3 Build 182)  -->
  <defs>
    <style>
      .st0 {
        fill: #f5b4c4;
      }

      .st1 {
        isolation: isolate;
      }

      .st2 {
        fill: #2c3b4e;
      }
    </style>
  </defs>
  <g>
    <path class="st2" d="M50.48,120.41c6.72,3.11,10.05,4.69,16.65,7.9,9.62-12.54,16.71-29.86,13.7-45.87-5.6-8.31-14.07-12.84-25.1-13.73C11.21,79.17-10.32,153.23,8.69,190.91c6.85,9.89,21.09,16.78,33.05,13.44,14.34-7.79,23.33-28,29.91-41.93-6.92-3.1-10.41-4.62-17.46-7.61-4.39,10.18-12.23,38.15-25.91,40.3-21.41-19.17,2.17-115.65,32.43-118.8,12.7,11.12-1.89,34.2-10.24,44.11h.01Z"/>
    <path class="st2" d="M405.25,134.1c-7.15,4.34-14.82,8.27-22.77,12.03,3.55-8.43,7.15-16.74,10.78-24.9,1.9-1.21-4.5-5.8-11.72-10.58-1.83,4.04-2.74,6.06-4.53,10.11-10.53,12.12-16.87,17.97-20.3,18.32-.03-3,4.98-12.2,12.19-23.44,1.07-1.11-13.92-8.63-15.06-7.8-4.08,8.22-6.08,12.36-10,20.68-13.34,9.54-20.11,13.95-20.93,12.48.49-3.34,9.75-20.66,8.88-23.32-6.07-4.55-12.38-8.47-18.92-11.73-.08-1.73-.12-2.6-.2-4.33-1.68-1.56-3.91-2.48-6.49-2.97-5.7,6.83-9.27,12.32-8.95,14.89,3.47,2.14,5.19,3.22,8.62,5.39-9.85,10.22-18.13,15.34-25.17,14.01,3.43-5.22,4.84-8.77,4.28-10.83-2.77-5.39-5.38-8.37-7.78-9.27-6.11,5.82-8.9,12.44-8.83,19.65-4.09,5.71-7.64,9.21-10.5,9.11-2.46-.97-1-10.55,2.32-23.57,17.93-15.23,47.28-34.49,53.5-59.18-2.68-5.17-7.3-8.56-14.22-9.67-32.88,7.3-57.44,49.63-59.18,81.01-4.3,3.29-8.38,5.71-12.04,5.72,2.32-5.31,3.67-9.85,2.61-12.64-3.75-3.52-6.8-6.34-8.98-8.34-7.29,8.64-9.98,16.24-7.8,22.36-4.36,6.28-8.12,10.84-10.35,9.24-2.02-12.24,6.03-25.59,15.47-32.8-2.55-3.05-5.17-4.9-7.83-4.54-13.15,4.2-23.01,14.91-23.93,28.99-7.03,7.58-13.21,14.33-14.44,12.82-1.31-2.07,6.96-24.67,4.56-26.03,1.98-.21-12.61-6.26-20.35-8.56-.27-1.6-.4-2.4-.67-3.99-1.72-1.18-4.16-1.85-6.94-2.26-4.57,8.52-7.35,15.21-6.1,16.97,1.96,1.55,5.4,2.83,9.2,4.07-7.27,10.46-15.42,21.89-26.4,28.58-1-1.23,4.18-29.95,3.62-30.92-3.03-2.34-7.33-4-12.95-4.9-6.78,4.03-12.56,10.06-17.04,18.41.2-2.97.31-4.46.52-7.43,11.07-16.97,35.26-45.86,31.06-67.96-5.13-4.1-10.18-6.2-15.1-6.51-29.91,15.97-39.67,85.1-32.92,114.67,2.87,1.97,6.85,3.12,11.32,3.94,2.06.27,3.14-.75,2.91-3.56,1.6-15.58,7.23-30.68,17.16-42.86-3.85,15.19-4.47,26.25-2.86,33.78,3.12,2.98,7.2,4.01,12.22,3.24,13.85-7.41,24.22-24.47,33.56-36.43,1.81.34,2.77.53,3.59.69-1.94,7.46-2.94,14.84-3.3,22.17,1.68,2.99,8.61,6.23,11.5,4.99,4.69-1.47,10.71-7.17,17.8-15.27,2.48,6.87,11.4,11.6,15.54,10.18,7.32-1.49,14.05-6.01,20.41-13.56,7.47-.92,15.75-5.89,16.2-5.84s1.37,5.74,3.85,8.13c5.41,5.98,10.44,7.56,15.2,5.83,6.04-2.18,11.73-5.95,16.83-11.53,14.65.86,25.54-7.88,35.52-17.49,1.38.65,2.06.98,3.44,1.64-3.56,6.95-5.75,13.7-7.02,20.28,2.12,3.78,5.68,5.89,10.58,6.53,7.39-2.04,14.53-6.55,21.71-12.04-1.34,3.24-1.11,6.03,1.2,8.19,4.16,4.23,7.88,5.63,11.17,3.46,6.02-2.53,12.13-7.12,18.42-13.23-3.62,7.98-5.4,11.99-8.89,20.06-11.68,5.64-32.64,17.45-32.61,32.81,4.16,5.38,7.85,7.62,10.57,6.95,16.82-4.14,33.28-25.58,39.27-42.85,8.27-3.63,18.49-9.28,29.72-15.41-1.3-1.52-1.95-2.28-3.25-3.8l.02-.04h0ZM302.48,57.71c2.51,2.59-3.3,10.62-12.16,21.25-8.38,9.37-16.99,17.85-25.8,25.63,5.26-16.94,19.91-41.55,37.96-46.88ZM121.17,67.69c1.98,1.16.82,6.49-.71,12.43-4.58,12.6-10.32,25.21-16.7,37,3.93-16.12,6.5-36.22,17.41-49.43ZM346.86,180.51c-4.18,5.23-7.57,8.77-9.5,8.28-1.26-7.16,5.97-15.33,19.5-23.45-2.12,4.57-5.57,9.62-10,15.17Z"/>
  </g>
  <path class="st0" d="M249.06,76.66c2.29-1.16,3.07-2.72,3.03-4.5,1.34-7.5,3.05-15.29.04-19.34-.68-3.13-1.31-6.03-1.87-8.63,3.18-3.75,2.13-6.49-1.65-8.57-3.56-.41-7.81,2.98-12.29,7.66-8.01,11.16-12.54,16.19-13.37,14.69-2.47,3.54-27.11-58.55-32.06-53.5-6.02,2.89-9.99,12.68-12.97,25.83-3.92,13.46-7.18,20.69-11.99,19.99-10.78-7.24-22.03-15.04-24.7-12.64-3.45-.68-3.38,4.83-1.68,13.22l3.21,47.48c.75,4.63,2.79,8.22,5.83,11.02,30.19-4.68,59.49-5.1,91.6-2.5,3.9-1.82,2.45-16.67,8.87-30.22h0Z"/>
  <path class="st2" d="M241.01,84.56c2.06-.75,2.87-1.99,3.02-3.5,1.88-6.21,4.11-12.64,1.96-16.36-.26-2.72-.51-5.23-.73-7.49,3.06-2.86,2.45-5.28-.54-7.41-2.97-.71-6.91,1.74-11.16,5.26-7.89,8.64-12.23,12.45-12.78,11.1-2.44,2.75-17.1-52.25-21.79-48.47-5.38,1.85-9.72,9.73-13.55,20.57-4.66,11-8.14,16.8-12.14,15.72-8.4-7.2-17.14-14.93-19.64-13.16-2.85-.92-3.34,3.75-2.74,11.02l-2.02,40.5c.17,4,1.54,7.24,3.83,9.91,26.02-.95,50.85,1.62,77.77,7.02,3.48-1.15,3.73-13.87,10.52-24.69v-.02h-.01ZM226.76,98.56c-3.58,2.68-10.7,2.43-19.33.9-11.58-2.94-28.1-3.35-45.95-3.08.89-1.74.29-5.51-.5-6.68,2.94-1.39,3.66-3.15,1.42-5.42-2.2-5.23-5.64-18.73-6.66-18.89s.68-10.33-1.03-16.94c-.11-2.52.55-3.61,3.77.05,7.91,5.41,11.26,9.62,12.01,13.14,3.21,3.17,6.52,4.04,9.94,1.78,3.01-.78,1.98-12,1.61-12.09-.04.06-.06.09-.05.05,0-.05.03-.06.05-.05.77-1.24,11.66-22.5,13.01-25.37.96-2.04,14.01,22.52,18.93,37.72,1.38,5.68,3.94,9.73,16.53-.09,4.3-3.6,5.25-2.62,5.3-.41-1.99,15.75-3.8,32.21-9.06,35.38h.01Z"/>
  <g class="st1">
    <g class="st1">
      <path class="st2" d="M84.58,186.47h1.98v18.73h-1.98v-18.73Z"/>
      <path class="st2" d="M99.67,186.47h1.98v17.02h10.49v1.71h-12.47v-18.73Z"/>
      <path class="st2" d="M113.4,195.83c0-5.46,4.18-9.53,9.85-9.53s9.82,4.04,9.82,9.53-4.2,9.53-9.82,9.53-9.85-4.07-9.85-9.53ZM131.09,195.83c0-4.47-3.35-7.76-7.84-7.76s-7.9,3.29-7.9,7.76,3.37,7.76,7.9,7.76,7.84-3.29,7.84-7.76Z"/>
      <path class="st2" d="M164.78,191.12l-5.33,14.08h-1.79l-4.44-11.54-4.44,11.54h-1.79l-5.3-14.08h1.82l4.42,11.96,4.52-11.96h1.63l4.5,11.96,4.47-11.96h1.74Z"/>
      <path class="st2" d="M188.25,195.83h1.9v7.15c-1.77,1.58-4.28,2.38-6.88,2.38-5.7,0-9.88-4.04-9.88-9.53s4.18-9.53,9.9-9.53c2.84,0,5.3.91,6.96,2.7l-1.23,1.26c-1.58-1.55-3.45-2.19-5.65-2.19-4.63,0-8.03,3.29-8.03,7.76s3.4,7.76,8,7.76c1.79,0,3.45-.4,4.9-1.45v-6.32Z"/>
      <path class="st2" d="M202.43,191.02v1.85c-.16,0-.32-.03-.46-.03-2.94,0-4.74,1.87-4.74,5.19v7.17h-1.9v-14.08h1.82v2.76c.88-1.87,2.68-2.86,5.27-2.86Z"/>
      <path class="st2" d="M218.76,191.12v14.08h-1.82v-2.57c-.99,1.71-2.81,2.7-5.06,2.7-3.59,0-5.94-2.01-5.94-6.05v-8.16h1.9v7.98c0,3,1.55,4.52,4.23,4.52,2.94,0,4.79-1.9,4.79-5.11v-7.39h1.9Z"/>
      <path class="st2" d="M236.92,185.34v19.86h-1.82v-2.78c-1.15,1.9-3.1,2.92-5.43,2.92-4.01,0-7.01-2.92-7.01-7.17s3-7.15,7.01-7.15c2.25,0,4.18.96,5.35,2.78v-8.46h1.9ZM235.05,198.16c0-3.29-2.25-5.49-5.22-5.49s-5.25,2.19-5.25,5.49,2.25,5.49,5.25,5.49,5.22-2.19,5.22-5.49Z"/>
      <path class="st2" d="M252.15,203.62v1.58h-11.46v-1.26l8.86-11.21h-8.7v-1.61h11.13v1.26l-8.86,11.24h9.02Z"/>
      <path class="st2" d="M255.47,186.68c0-.72.62-1.34,1.39-1.34s1.39.59,1.39,1.31c0,.78-.59,1.39-1.39,1.39s-1.39-.62-1.39-1.37ZM255.9,191.12h1.9v14.08h-1.9v-14.08Z"/>
      <path class="st2" d="M274.28,210.45c-.64.43-1.45.64-2.27.64-1.79,0-2.94-.99-2.94-2.54,0-1.15.64-2.49,2.84-3.64v-1.9c-.86,1.45-2.52,2.33-4.84,2.33-3.19,0-5.14-1.66-5.14-4.09,0-2.17,1.39-3.99,5.43-3.99h4.47v-.86c0-2.41-1.37-3.72-3.99-3.72-1.82,0-3.53.64-4.68,1.66l-.86-1.42c1.42-1.21,3.51-1.9,5.73-1.9,3.64,0,5.7,1.82,5.7,5.46v8.72c-2.54,1.12-3.27,2.22-3.27,3.21s.75,1.5,1.74,1.5c.59,0,1.23-.16,1.66-.51l.43,1.04ZM271.82,200.97v-2.3h-4.42c-2.73,0-3.61,1.07-3.61,2.52,0,1.63,1.31,2.65,3.56,2.65s3.72-1.02,4.47-2.86Z"/>
      <path class="st2" d="M291.78,185.34v19.86h-1.82v-2.78c-1.15,1.9-3.1,2.92-5.43,2.92-4.01,0-7.01-2.92-7.01-7.17s3-7.15,7.01-7.15c2.25,0,4.18.96,5.35,2.78v-8.46h1.9ZM289.91,198.16c0-3.29-2.25-5.49-5.22-5.49s-5.25,2.19-5.25,5.49,2.25,5.49,5.25,5.49,5.22-2.19,5.22-5.49Z"/>
      <path class="st2" d="M307.01,203.62v1.58h-11.46v-1.26l8.86-11.21h-8.7v-1.61h11.13v1.26l-8.86,11.24h9.02Z"/>
      <path class="st2" d="M323.44,191.12v14.08h-1.82v-2.57c-.99,1.71-2.81,2.7-5.06,2.7-3.59,0-5.94-2.01-5.94-6.05v-8.16h1.9v7.98c0,3,1.55,4.52,4.23,4.52,2.94,0,4.79-1.9,4.79-5.11v-7.39h1.9Z"/>
    </g>
  </g>
</svg>